<svg xmlns="http://www.w3.org/2000/svg" width="284.077" height="284.041" viewBox="0 0 284.077 284.041"><defs><style>.a{fill:#838f9b;}.b{fill:#969faa;}.c{fill:#c4ccd6;}.d{fill:#eff2f7;}.e{fill:#62466b;}</style></defs><g transform="translate(0 0)"><g transform="translate(4.582 4.582)"><g transform="translate(82.246 246.236)"><rect class="a" width="111.059" height="26.923" transform="translate(0 0)"/></g><g transform="translate(0 210.767)"><path class="b" d="M436.328,296.655A18.322,18.322,0,0,1,418,278.328V260h59.565l13.746,9.164h201.6v9.164a18.323,18.323,0,0,1-18.328,18.327H436.328Z" transform="translate(-418 -260)"/></g><g transform="translate(0 64.146)"><path class="c" d="M692.914,246.328V383.784H491.31l-13.746-9.164H418V246.328A18.323,18.323,0,0,1,436.328,228h30.195a37.671,37.671,0,0,0,2.2,5.269,341.7,341.7,0,0,1,22.13,55.807,345.04,345.04,0,0,1,12.142,58.786l.916,7.881a10.969,10.969,0,0,0,21.535,1.42l12.921-51.684a17.621,17.621,0,0,1,34.181,0l12.921,51.684a10.937,10.937,0,0,0,17.915,5.5,10.785,10.785,0,0,0,3.62-6.919l.916-7.881a346.356,346.356,0,0,1,34.272-114.593,37.642,37.642,0,0,0,2.2-5.269h30.195A18.323,18.323,0,0,1,692.914,246.328Z" transform="translate(-418 -228)"/></g><g transform="translate(45.819)"><path class="d" d="M611.276,260.644v1.924a46.248,46.248,0,0,1-2.7,15.578,37.625,37.625,0,0,1-2.2,5.269A346.352,346.352,0,0,0,572.1,398.009l-.917,7.881a11.043,11.043,0,0,1-10.905,9.714,10.94,10.94,0,0,1-10.63-8.293l-12.921-51.684a17.62,17.62,0,0,0-34.181,0L489.627,407.31a10.969,10.969,0,0,1-21.535-1.42l-.917-7.881a345.04,345.04,0,0,0-12.142-58.786,341.708,341.708,0,0,0-22.13-55.807,37.654,37.654,0,0,1-2.2-5.269,46.247,46.247,0,0,1-2.7-15.578v-1.924a46.657,46.657,0,0,1,70.653-40l3.94,2.383a33.139,33.139,0,0,0,34.089,0l3.94-2.383a46.657,46.657,0,0,1,70.653,40Z" transform="translate(-428 -214)"/></g></g><g transform="translate(0 0)"><g transform="translate(64.616 274.618)"><rect class="e" width="155.482" height="9.423" transform="translate(0 0)"/></g><g transform="translate(193.175 252.406)"><rect class="e" width="8.077" height="26.923" transform="translate(0 0)"/></g><g transform="translate(4.582 210.767)"><path class="e" d="M692.914,277.328H489.923l-13.746-9.164H418V259h60.952l13.746,9.164H692.914Z" transform="translate(-418 -259)"/></g><g transform="translate(55.193 228.848)"><rect class="e" width="9.423" height="9.423" transform="translate(0 0)"/></g><g transform="translate(36.347 228.848)"><rect class="e" width="9.423" height="9.423" transform="translate(0 0)"/></g><g transform="translate(18.846 228.848)"><rect class="e" width="9.423" height="9.423" transform="translate(0 0)"/></g><g transform="translate(100.802 64.146)"><path class="e" d="M599.366,419.44H439v-9.164H599.366a13.763,13.763,0,0,0,13.746-13.746V249.91a13.762,13.762,0,0,0-13.746-13.746H569.19V227h30.176a22.936,22.936,0,0,1,22.91,22.91V396.53A22.936,22.936,0,0,1,599.366,419.44Z" transform="translate(-439 -227)"/></g><g transform="translate(0 64.146)"><path class="e" d="M508.638,442.349h-9.164V419.44H439.91A22.936,22.936,0,0,1,417,396.53V249.91A22.936,22.936,0,0,1,439.91,227H470.09v9.164H439.91a13.762,13.762,0,0,0-13.746,13.746V396.53a13.763,13.763,0,0,0,13.746,13.746h68.728Z" transform="translate(-417 -227)"/></g><g transform="translate(45.819)"><path class="e" d="M563.861,423.767a15.533,15.533,0,0,1-15.088-11.785l-12.917-51.665a13.028,13.028,0,0,0-25.274,0l-12.916,51.665a15.554,15.554,0,0,1-30.538-1.956l-.93-7.908a341.343,341.343,0,0,0-33.787-113.072A51.429,51.429,0,0,1,427,266.136V264.23A51.224,51.224,0,0,1,504.585,220.3l3.968,2.378a28.967,28.967,0,0,0,29.329,0l3.977-2.378A51.221,51.221,0,0,1,619.44,264.23v1.906a51.431,51.431,0,0,1-5.411,22.909,341.344,341.344,0,0,0-33.787,113.072l-.93,7.913A15.556,15.556,0,0,1,563.861,423.767ZM523.22,341.293A22.15,22.15,0,0,1,544.741,358.1l12.921,51.661a6.393,6.393,0,0,0,12.55-.8l.93-7.917a350.482,350.482,0,0,1,34.689-116.1,42.194,42.194,0,0,0,4.444-18.809V264.23a42.057,42.057,0,0,0-63.7-36.069h0l-3.977,2.378a38.27,38.27,0,0,1-38.754,0l-3.968-2.378a42.061,42.061,0,0,0-63.707,36.069v1.906a42.193,42.193,0,0,0,4.445,18.809,350.485,350.485,0,0,1,34.689,116.1l.93,7.913a6.392,6.392,0,0,0,12.55.8L501.7,358.1A22.15,22.15,0,0,1,523.22,341.293Z" transform="translate(-427 -213)"/></g><g transform="translate(106.444 29.478)"><path class="e" d="M467.012,302.919l-26.78-32.136,7.043-5.87,19.039,22.847,46.974-68.326,7.553,5.19Z" transform="translate(-440.232 -219.434)"/></g></g></g></svg>