<svg xmlns="http://www.w3.org/2000/svg" width="291.095" height="288.48" viewBox="0 0 291.095 288.48"><defs><style>.a{fill:#fca7ca;}.b{fill:#fd79a8;}.c{fill:#ececec;}.d{fill:#b6c1ce;}.e{fill:#fbc3c6;}.f{fill:#62466b;}</style></defs><g transform="translate(-0.001)"><path class="a" d="M202.909,465.944a143.051,143.051,0,0,0-96.877,102.081l-.832,3.336H384.372l-.832-3.336a143.052,143.052,0,0,0-96.88-102.081l-27.917-5.575q-6.9-.677-13.958-.678t-13.958.678Zm0,0" transform="translate(-99.237 -287.533)"/><path class="b" d="M367.728,556.058C335.907,567.406,292.576,574.4,244.786,574.4s-91.124-7-122.945-18.346a142.585,142.585,0,0,0-15.81,38.279l-.832,3.331H384.372l-.832-3.336a142.878,142.878,0,0,0-15.813-38.274Zm0,0" transform="translate(-99.237 -313.84)"/><path class="c" d="M308.7,229.292a45.206,45.206,0,0,0-25.238,8.031,34.919,34.919,0,0,1-38.926,0,45.2,45.2,0,0,0-25.235-8.031A43.7,43.7,0,0,0,175.6,273a143.125,143.125,0,0,0,25.443,81.454,158.345,158.345,0,0,1,23.432,51.74l4.979,19.91a10.454,10.454,0,0,0,20.595-2.53V364.224a13.958,13.958,0,0,1,27.916,0V423.57a10.451,10.451,0,0,0,20.59,2.533l4.978-19.907a158.361,158.361,0,0,1,23.432-51.74A143.138,143.138,0,0,0,352.407,273a43.7,43.7,0,0,0-43.7-43.7Zm0,0" transform="translate(-118.455 -224.638)"/><path class="d" d="M267.489,371.681c-29.081,0-56.193-4.709-79.122-12.814a143.223,143.223,0,0,0,16.159,30.955,158.347,158.347,0,0,1,23.432,51.74l4.979,19.91a10.454,10.454,0,0,0,20.595-2.53V399.6a13.958,13.958,0,1,1,27.916,0v59.345a10.451,10.451,0,0,0,20.59,2.533l4.978-19.907a158.362,158.362,0,0,1,23.432-51.74,142.982,142.982,0,0,0,16.159-30.958c-22.923,8.1-50.036,12.811-79.117,12.811Zm0,0" transform="translate(-121.941 -260.01)"/><path class="e" d="M303.563,371.212a32.571,32.571,0,0,0-65.142,0v5.981a176.771,176.771,0,0,0-15.086-26.351A123.9,123.9,0,0,1,201.2,279.984a25.121,25.121,0,0,1,25.094-25.094,26.648,26.648,0,0,1,14.833,4.851,53.514,53.514,0,0,0,59.743-.006,26.646,26.646,0,0,1,14.825-4.845,25.12,25.12,0,0,1,25.093,25.094,123.9,123.9,0,0,1-22.134,70.858A176.786,176.786,0,0,0,303.563,377.2Zm0,0" transform="translate(-125.444 -231.626)"/><path class="a" d="M326.012,373.552c.9-1.3,1.684-2.644,2.53-3.964a55.742,55.742,0,0,0-100.382-.006c.849,1.323,1.639,2.675,2.536,3.973a176.776,176.776,0,0,1,15.086,26.351v-5.981a32.571,32.571,0,0,1,65.142,0v5.981a176.488,176.488,0,0,1,15.088-26.354Zm0,0" transform="translate(-132.804 -254.339)"/><path class="f" d="M385.815,502.256a148.459,148.459,0,0,0-97.071-104.389,153.113,153.113,0,0,1,20.589-42.519,147.054,147.054,0,0,0,26.272-84.1,48.412,48.412,0,0,0-48.357-48.358,49.813,49.813,0,0,0-27.84,8.824,30.243,30.243,0,0,1-33.724,0,49.815,49.815,0,0,0-27.837-8.824,48.412,48.412,0,0,0-48.358,48.358,147.073,147.073,0,0,0,26.269,84.1,153.294,153.294,0,0,1,20.589,42.519A148.455,148.455,0,0,0,99.281,502.256L97,511.37H388.095ZM158.8,271.248A39.1,39.1,0,0,1,197.848,232.2a40.5,40.5,0,0,1,22.634,7.236,39.583,39.583,0,0,0,44.135,0,40.487,40.487,0,0,1,22.631-7.236A39.1,39.1,0,0,1,326.3,271.248a137.818,137.818,0,0,1-24.619,78.807,162.589,162.589,0,0,0-24.124,53.265L274.011,417.5q2.079-23.7,5.381-47.2a172.939,172.939,0,0,1,14.634-25.542,128.56,128.56,0,0,0,22.966-73.511A29.78,29.78,0,0,0,287.248,241.5a31.271,31.271,0,0,0-17.432,5.639,48.857,48.857,0,0,1-54.535,0,31.314,31.314,0,0,0-17.434-5.642A29.78,29.78,0,0,0,168.1,271.248a128.508,128.508,0,0,0,22.969,73.511A172.829,172.829,0,0,1,205.7,370.3c2.178,15.551,3.933,31.244,5.319,46.952l-3.485-13.935a162.4,162.4,0,0,0-24.125-53.265A137.875,137.875,0,0,1,158.8,271.248Zm83.751,72.618a18.629,18.629,0,0,0-18.612,18.61v59.345a5.713,5.713,0,0,1-2.778,4.825c-1.539-20-3.711-40.032-6.529-59.808v-4.362a27.918,27.918,0,0,1,55.835,0v4.365c-2.82,19.8-4.934,39.816-6.475,59.842a5.724,5.724,0,0,1-2.831-4.862V362.477a18.629,18.629,0,0,0-18.61-18.61Zm9.306,46.859a149.43,149.43,0,0,0-18.613,0V362.477a9.306,9.306,0,0,1,18.613,0Zm53.106-94.208-2.284-15.986-8.948-5.37V264.767h-9.307v4.811l-6.91-4.146-4.788,7.98,21.368,12.819.917,6.452H286.35l-7.943-7.94-6.579,6.577,6.018,6.017-6.018,6.015,6.579,6.58,7.943-7.943h9.988l2.089,14.62.344-.051a120.154,120.154,0,0,1-12.39,22.9c-2.857,4.121-5.546,8.375-8.06,12.729a37.3,37.3,0,0,0-31.122-26.61v-7.7l12.595-12.595-6.577-6.58-6.018,6.015V298.1l4.416-13.242-8.827-2.945-2.953,8.869-13.816-6.907-4.164,8.324,16.037,8.018v25.363a37.067,37.067,0,0,0-19.55,8.673l-.821-8.2,9.962-11.746-7.093-6.015-4.152,4.9-1.758-17.6-12.763-17.016,7.477-11.218-7.744-5.16-7.026,10.539-5.629-2.814-4.164,8.324,8.324,4.161,9.426,12.566-7.835,2.61,2.945,8.823,8.437-2.811L210,344.327l.079-.008a37.2,37.2,0,0,0-3.309,7.863q-3.761-6.522-8.054-12.726a119.225,119.225,0,0,1-21.31-68.208,20.464,20.464,0,0,1,20.441-20.439,22.016,22.016,0,0,1,12.225,4.053,58.175,58.175,0,0,0,64.951-.006,22.045,22.045,0,0,1,12.223-4.047,20.464,20.464,0,0,1,20.439,20.439,120.341,120.341,0,0,1-2.726,25.27Zm-34.5,205.546c-9.527.032,3.259-.129-9.306,0H223.935c-16.992.076,9.24.1-9.307,0H108.945a139.118,139.118,0,0,1,89.88-95.216l4.657,18.636a15.029,15.029,0,0,0,8.988,10.3c.35,5.117,9.679,5.373,9.363.627a15.083,15.083,0,0,0,11.408-14.585V400.049a140.222,140.222,0,0,1,18.613,0v21.773a15.082,15.082,0,0,0,11.394,14.585c-.627,9.432,8.718,9.125,9.38-.633a15.031,15.031,0,0,0,8.98-10.3l4.657-18.633a139.138,139.138,0,0,1,89.886,95.219Z" transform="translate(-96.999 -222.89)"/></g></svg>