<svg xmlns="http://www.w3.org/2000/svg" width="284.174" height="284.041" viewBox="0 0 284.174 284.041"><defs><style>.a{fill:#cf9e76;}.b{fill:#fcd770;}.c{fill:#aab2bd;}.d{fill:#ccd1d9;}.e{fill:#b9f0ff;}.f{fill:#ef7385;}.g{fill:#f0d0b4;}.h{fill:#e6e9ed;}.i{fill:#62466b;}</style></defs><g transform="translate(-320.971 -213)"><g transform="translate(325.685 217.581)"><g transform="translate(187.834 201.578)"><path class="a" d="M399.65,258v54.976a18.325,18.325,0,0,1-36.65,0V258Z" transform="translate(-363 -258)"/></g><g transform="translate(187.834 183.252)"><path class="b" d="M399.65,254v18.325H363V254h36.65Z" transform="translate(-363 -254)"/></g><g transform="translate(196.996 164.286)"><path class="c" d="M383.325,249.86v18.967H365V249.86a65.774,65.774,0,0,0,18.325,0Z" transform="translate(-365 -249.86)"/></g><g transform="translate(137.439 27.488)"><path class="d" d="M411.557,356.8A67.3,67.3,0,0,1,381,344.749a68.208,68.208,0,0,1-29-56.029A68.78,68.78,0,0,1,420.72,220a75.667,75.667,0,0,1,10.262.733,68.725,68.725,0,0,1-1.1,136.065,65.774,65.774,0,0,1-18.325,0Z" transform="translate(-352 -220)"/></g><g transform="translate(155.765 45.813)"><circle class="e" cx="50.394" cy="50.394" r="50.394"/></g><g transform="translate(165.569 59.557)"><path class="f" d="M421.637,227l-5.5,21.166a112.611,112.611,0,0,1-39.995,60.565,50.255,50.255,0,0,1-18-15.21,120.155,120.155,0,0,0,52.548-47.875Z" transform="translate(-358.14 -227)"/></g><g transform="translate(0 59.557)"><path class="f" d="M469.931,300.164a69.574,69.574,0,0,0,18.508,19.516l-.046.046a112.671,112.671,0,0,1-160.9-71.56L322,227l10.949,18.646a120.117,120.117,0,0,0,43.935,43.385c1.512.87,3.069,1.741,4.673,2.52a117.736,117.736,0,0,0,27.488,10.125,119.346,119.346,0,0,0,27.488,3.207A121.287,121.287,0,0,0,469.931,300.164Z" transform="translate(-322 -227)"/></g><g transform="translate(3.573)"><path class="f" d="M525.365,241.488a68.364,68.364,0,0,0-46.683,18.325H322.78A67.88,67.88,0,0,1,409.5,217.848a68.686,68.686,0,0,1,19.929,11.041l4.306,3.436,4.307-3.436a68.042,68.042,0,0,1,97.582,13.332A75.667,75.667,0,0,0,525.365,241.488Z" transform="translate(-322.78 -214)"/></g><g transform="translate(155.765 46.042)"><path class="g" d="M427.7,230.693l1.6,6.872-10.949,18.646A120.155,120.155,0,0,1,365.8,304.085a50.408,50.408,0,0,1,17.684-74.767v17.409s4.581,4.581,13.744,4.581,13.744-4.581,13.744-4.581V224.05a50.183,50.183,0,0,1,16.126,4.215C427.331,229.089,427.514,229.868,427.7,230.693Z" transform="translate(-356 -224.05)"/></g><g transform="translate(0 45.813)"><path class="g" d="M450.277,288.138c-9.163,0-13.744,4.581-13.744,4.581s-4.581-4.581-13.744-4.581-13.744,4.581-13.744,4.581-4.581-4.581-13.744-4.581-13.744,4.581-13.744,4.581v9.575c-1.6-.779-3.161-1.649-4.673-2.52a120.117,120.117,0,0,1-43.935-43.385L322,237.744l1.6-6.872a69.435,69.435,0,0,1,1.97-6.872h14.752v22.907s4.581,4.581,13.744,4.581,13.744-4.581,13.744-4.581,4.581,4.581,13.744,4.581,13.744-4.581,13.744-4.581,4.581,4.581,13.744,4.581,13.744-4.581,13.744-4.581,4.581,4.581,13.744,4.581,13.744-4.581,13.744-4.581,4.352,4.352,13.1,4.581a67.98,67.98,0,0,0-3.94,22.906,69.763,69.763,0,0,0,1.97,16.493A22.263,22.263,0,0,0,450.277,288.138Z" transform="translate(-322 -224)"/></g><g transform="translate(114.533 109.951)"><path class="h" d="M371.877,240.749a69.473,69.473,0,0,0,8.521,20.02,121.288,121.288,0,0,1-33.4,4.719V242.581S351.581,238,360.744,238A22.263,22.263,0,0,1,371.877,240.749Z" transform="translate(-347 -238)"/></g><g transform="translate(87.045 109.951)"><path class="h" d="M368.488,242.581v22.907A119.344,119.344,0,0,1,341,262.281v-19.7S345.581,238,354.744,238,368.488,242.581,368.488,242.581Z" transform="translate(-341 -238)"/></g><g transform="translate(59.557 109.951)"><path class="h" d="M362.488,242.581v19.7A117.733,117.733,0,0,1,335,252.156v-9.575S339.581,238,348.744,238,362.488,242.581,362.488,242.581Z" transform="translate(-335 -238)"/></g><g transform="translate(18.325 45.813)"><path class="h" d="M353.488,224v22.907s-4.581,4.581-13.744,4.581S326,246.907,326,246.907V224Z" transform="translate(-326 -224)"/></g><g transform="translate(45.813 45.813)"><path class="h" d="M359.488,224v22.907s-4.581,4.581-13.744,4.581S332,246.907,332,246.907V224Z" transform="translate(-332 -224)"/></g><g transform="translate(73.301 45.813)"><path class="h" d="M365.488,224v22.907s-4.581,4.581-13.744,4.581S338,246.907,338,246.907V224Z" transform="translate(-338 -224)"/></g><g transform="translate(100.789 45.813)"><path class="h" d="M371.488,224v22.907s-4.581,4.581-13.744,4.581S344,246.907,344,246.907V224Z" transform="translate(-344 -224)"/></g><g transform="translate(128.277 45.813)"><path class="h" d="M381.2,224a68.344,68.344,0,0,0-18.1,27.488c-8.75-.229-13.1-4.581-13.1-4.581V224Z" transform="translate(-350 -224)"/></g><g transform="translate(183.252 45.813)"><path class="h" d="M389.488,224.229v22.677s-4.581,4.581-13.744,4.581S362,246.907,362,246.907V229.5a50.005,50.005,0,0,1,22.906-5.5C386.464,224,387.976,224.092,389.488,224.229Z" transform="translate(-362 -224)"/></g></g><g transform="translate(320.971 213)"><path class="i" d="M440.218,387.09a117.285,117.285,0,0,1-113.452-87.654l-5.8-22.229,1.842-7.994a72.524,72.524,0,0,1,115.971-40.32l1.434,1.15,1.429-1.15a72.54,72.54,0,0,1,104.17,14.248l-7.435,5.36a63.367,63.367,0,0,0-91.008-12.452l-7.156,5.722-7.16-5.722a63.356,63.356,0,0,0-101.316,35.226l-1.342,5.8,5.236,20.052A108.092,108.092,0,0,0,489.99,365.791l4.224,8.132A117.685,117.685,0,0,1,440.218,387.09Z" transform="translate(-320.971 -213)"/><g transform="translate(185.502 53.675)"><path class="i" d="M367.079,320.52l-5.617-7.239a107.2,107.2,0,0,0,38.327-58.119l5.236-20.052-1.342-5.8c-.174-.765-.362-1.507-.559-2.245l8.856-2.355c.224.843.44,1.7.632,2.552l1.842,7.981-5.8,22.233A117.886,117.886,0,0,1,367.079,320.52Z" transform="translate(-361.462 -224.716)"/></g><g transform="translate(0.765 61.816)"><path class="i" d="M439.62,311.279a125.216,125.216,0,0,1-107.514-61.49l-10.968-18.651,7.9-4.645,10.972,18.655a115.574,115.574,0,0,0,131.736,52.415l2.547,8.805A124.827,124.827,0,0,1,439.62,311.279Z" transform="translate(-321.138 -226.493)"/></g><g transform="translate(168.336 61.816)"><path class="i" d="M361.6,299.469l-3.89-8.3a115.111,115.111,0,0,0,50.523-46.024l10.972-18.655,7.9,4.645L416.14,249.789A124.253,124.253,0,0,1,361.6,299.469Z" transform="translate(-357.715 -226.493)"/></g><g transform="translate(59.69 109.951)"><path class="i" d="M370.65,265.885h-9.163V248.449a19.47,19.47,0,0,0-18.325.009v7.3H334v-11.49l1.342-1.342c.6-.609,6.231-5.924,16.983-5.924s16.378,5.314,16.983,5.924l1.342,1.342Z" transform="translate(-334 -237)"/></g><g transform="translate(88.52 109.951)"><path class="i" d="M375.6,269.069h-9.163V248.449a17.8,17.8,0,0,0-9.163-2.286c-6.959,0-10.413,3.161-10.56,3.294l-6.423-6.533c.6-.609,6.231-5.924,16.983-5.924s16.378,5.314,16.983,5.924l1.342,1.342Z" transform="translate(-340.293 -237)"/></g><g transform="translate(116.008 109.951)"><path class="i" d="M352.716,249.457l-6.423-6.533c.6-.609,6.231-5.924,16.983-5.924a27.033,27.033,0,0,1,13.414,3.34l-4.522,7.971a17.856,17.856,0,0,0-8.892-2.149C356.317,246.163,352.863,249.324,352.716,249.457Z" transform="translate(-346.293 -237)"/></g><g transform="translate(100.922 50.394)"><path class="i" d="M361.325,256.069c-10.752,0-16.378-5.314-16.983-5.924L343,248.8V224h9.163v20.62a17.8,17.8,0,0,0,9.163,2.286c6.959,0,10.413-3.161,10.56-3.294l6.423,6.533C377.7,250.755,372.078,256.069,361.325,256.069Z" transform="translate(-343 -224)"/></g><g transform="translate(128.409 50.394)"><path class="i" d="M367.325,256.069c-10.752,0-16.378-5.314-16.983-5.924L349,248.8V224h9.163v20.62a17.8,17.8,0,0,0,9.163,2.286Z" transform="translate(-349 -224)"/></g><g transform="translate(183.385 50.394)"><path class="i" d="M379.325,256.069c-10.752,0-16.378-5.314-16.983-5.924L361,248.8V229.5h9.163v15.123a19.47,19.47,0,0,0,18.325-.009V224h9.163v24.8l-1.342,1.342C395.7,250.755,390.078,256.069,379.325,256.069Z" transform="translate(-361 -224)"/></g><g transform="translate(73.434 50.394)"><path class="i" d="M355.325,256.069c-10.752,0-16.378-5.314-16.983-5.924L337,248.8V224h9.163v20.62a17.8,17.8,0,0,0,9.163,2.286c6.959,0,10.413-3.161,10.56-3.294l6.423,6.533C371.7,250.755,366.078,256.069,355.325,256.069Z" transform="translate(-337 -224)"/></g><g transform="translate(45.946 50.394)"><path class="i" d="M349.325,256.069c-10.752,0-16.378-5.314-16.983-5.924L331,248.8V224h9.163v20.62a17.8,17.8,0,0,0,9.163,2.286c6.959,0,10.413-3.161,10.56-3.294l6.423,6.533C365.7,250.755,360.078,256.069,349.325,256.069Z" transform="translate(-331 -224)"/></g><g transform="translate(8.271 45.813)"><rect class="i" width="155.899" height="9.163"/></g><g transform="translate(18.458 50.394)"><path class="i" d="M343.325,256.069c-10.752,0-16.378-5.314-16.983-5.924L325,248.8V224h9.163v20.62a17.8,17.8,0,0,0,9.163,2.286c6.959,0,10.413-3.161,10.56-3.294l6.423,6.533C359.7,250.755,354.078,256.069,343.325,256.069Z" transform="translate(-325 -224)"/></g><g transform="translate(137.572 27.488)"><path class="i" d="M424.3,365.6a73.3,73.3,0,1,1,73.3-73.3A73.386,73.386,0,0,1,424.3,365.6Zm0-137.439A64.138,64.138,0,1,0,488.439,292.3,64.209,64.209,0,0,0,424.3,228.163Z" transform="translate(-351 -219)"/></g><g transform="translate(197.129 168.829)"><rect class="i" width="9.163" height="19.005"/></g><g transform="translate(215.454 168.829)"><rect class="i" width="9.163" height="19.005"/></g><g transform="translate(187.967 183.252)"><path class="i" d="M384.907,353.789A22.933,22.933,0,0,1,362,330.882V253h45.813v77.882A22.933,22.933,0,0,1,384.907,353.789Zm-13.744-91.626v68.72a13.744,13.744,0,0,0,27.488,0v-68.72Z" transform="translate(-362 -253)"/></g><g transform="translate(192.548 201.578)"><rect class="i" width="36.65" height="9.163"/></g><g transform="translate(155.897 45.813)"><path class="i" d="M409.976,332.951a55,55,0,1,1,42.208-19.768l-7.032-5.873a45.841,45.841,0,1,0-5.841,5.841l5.873,7.032A55.027,55.027,0,0,1,409.976,332.951Z" transform="translate(-355 -223)"/></g></g></g></svg>