<svg id="Layer_1" data-name="Layer 1" xmlns="http://www.w3.org/2000/svg" viewBox="0 0 91.88 108.67"><defs><style>.cls-1{fill:#f0c4b4;}.cls-2{fill:#e6e9ed;}.cls-3,.cls-4{fill:#62466b;}.cls-3,.cls-5{stroke:#62466b;}.cls-5{fill:#fcd770;stroke-width:2.5px;}</style></defs><path class="cls-1" d="M58.53,45.26a49.49,49.49,0,0,0,2.14,15.49,53.36,53.36,0,0,1,1.94,22l-2.28,18.69A2.5,2.5,0,0,1,56,102.73L43.64,88.51A53.34,53.34,0,0,1,33,69.22a48.83,48.83,0,0,0-5.7-12.28h0a31.25,31.25,0,0,0,6-1.29c9.74-3,8.8-6.06,18.56-9A30.28,30.28,0,0,1,58.53,45.26Z" transform="translate(4.65 -4.12)"/><path class="cls-2" d="M62.29,16.49l.37,1.22a14.53,14.53,0,0,1-.44,9.73A49.61,49.61,0,0,0,58.55,44c0,.42,0,.87,0,1.3a30.28,30.28,0,0,0-6.66,1.35c-9.76,3-8.82,6.06-18.56,9a31.25,31.25,0,0,1-6,1.29h0c-.6-1-1.24-1.91-1.92-2.83A49.64,49.64,0,0,0,13.05,42.47a14.56,14.56,0,0,1-5.81-7.82l-.37-1.22A14.49,14.49,0,0,1,25.65,15.57a9.64,9.64,0,0,0,11.09-3.39A14.49,14.49,0,0,1,62.3,16.49Z" transform="translate(4.65 -4.12)"/><path class="cls-3" d="M27.86,49.53A54.44,54.44,0,0,0,15.73,38.44a9.64,9.64,0,0,1-3.87-5.21L11.49,32a9.68,9.68,0,0,1,2.95-10.16l2.1,2.44a6.44,6.44,0,0,0-2,6.78l.37,1.21a6.48,6.48,0,0,0,2.58,3.48A57.63,57.63,0,0,1,30.37,47.51Z" transform="translate(4.65 -4.12)"/><path class="cls-3" d="M56.9,89.52l-3.19-.39.9-7.39A44.87,44.87,0,0,0,53,63.1,58.83,58.83,0,0,1,51.13,55l3.18-.49a55.23,55.23,0,0,0,1.74,7.64,48,48,0,0,1,1.76,20Z" transform="translate(4.65 -4.12)"/><path class="cls-3" d="M59.05,105a4.09,4.09,0,0,1-4.28-1.23L42.43,89.56a54.27,54.27,0,0,1-11-19.87A48.13,48.13,0,0,0,12.16,43.8,16.15,16.15,0,0,1,5.7,35.12l-.37-1.21A16.11,16.11,0,0,1,16,13.8h0a16.13,16.13,0,0,1,10.16.26l-.54,1.51.55-1.51a8.27,8.27,0,0,0,9.24-2.83,16.12,16.12,0,0,1,8.27-5.89h0A16.1,16.1,0,0,1,63.83,16l.37,1.22a16.13,16.13,0,0,1-.5,10.81,48.11,48.11,0,0,0-1.49,32.23,54.32,54.32,0,0,1,2,22.63L61.92,101.6A4.09,4.09,0,0,1,59.05,105ZM17,16.88A12.88,12.88,0,0,0,8.41,33h0l.37,1.22a13,13,0,0,0,5.17,7A51.28,51.28,0,0,1,34.5,68.75a51.13,51.13,0,0,0,10.36,18.7l12.35,14.22a.9.9,0,0,0,1.27,0,.93.93,0,0,0,.24-.46L61,82.52a51,51,0,0,0-1.87-21.3,51.41,51.41,0,0,1,1.59-34.4,12.86,12.86,0,0,0,.4-8.65L60.75,17A12.87,12.87,0,0,0,44.67,8.41h0A12.93,12.93,0,0,0,38,13.13a11.58,11.58,0,0,1-12.94,4h0A12.92,12.92,0,0,0,17,16.88Z" transform="translate(4.65 -4.12)"/><path class="cls-4" d="M33.78,57.19a33.63,33.63,0,0,1-6.34,1.36l-.34-3.2a30.44,30.44,0,0,0,5.74-1.24,27.27,27.27,0,0,0,8.83-4.31,30.74,30.74,0,0,1,9.73-4.73,32.69,32.69,0,0,1,7-1.42l.25,3.21a29.59,29.59,0,0,0-6.31,1.29,27.32,27.32,0,0,0-8.84,4.31A30.69,30.69,0,0,1,33.78,57.19Z" transform="translate(4.65 -4.12)"/><path class="cls-5" d="M54.65,44.77h0c8.75-9,9.11-22.81.81-30.91h0c8.3,8.1,22.12,7.38,30.87-1.59h0c-8.75,9-9.11,22.81-.81,30.9h0C77.22,35.08,63.4,35.79,54.65,44.77Z" transform="translate(4.65 -4.12)"/><path class="cls-5" d="M9.44,112.44h0C13,100.42,6.82,88-4.3,84.75h0C6.82,88,18.7,80.92,22.24,68.9h0C18.7,80.92,24.86,93.32,36,96.59h0C24.86,93.32,13,100.42,9.44,112.44Z" transform="translate(4.65 -4.12)"/></svg>