<svg xmlns="http://www.w3.org/2000/svg" width="337.938" height="337.938" viewBox="0 0 337.938 337.938"><defs><style>.a{fill:#cf9e76;}.b{fill:#fcd770;}.c{fill:#aab2bd;}.d{fill:#ccd1d9;}.e{fill:#b9f0fe;}.f{fill:#e6e9ed;}.g{fill:#ef7385;}.h{fill:#62466b;}</style></defs><g transform="translate(-0.001)"><g transform="translate(5.452 5.451)"><g transform="translate(223.475 261.629)"><path class="a" d="M118.6,454v43.6a21.8,21.8,0,0,1-43.6,0V454Z" transform="translate(-75 -454)"/></g><g transform="translate(223.475 239.827)"><path class="b" d="M118.6,450v21.8H75V450h43.6Z" transform="translate(-75 -450)"/></g><g transform="translate(234.376 217.261)"><path class="c" d="M98.8,445.86v22.566H77v-21.8H87.9A79.55,79.55,0,0,0,98.8,445.86Z" transform="translate(-77 -445.86)"/></g><g transform="translate(163.518 54.506)"><path class="d" d="M156.66,578.755a78.25,78.25,0,0,1-21.8,0,81.6,81.6,0,0,1-70.64-75.545c-.164-1.8-.218-3.6-.218-5.45a80.881,80.881,0,0,1,4.688-27.253,81.716,81.716,0,0,1,72.711-54.4c1.417-.054,2.889-.109,4.361-.109a81.741,81.741,0,0,1,10.9,162.755Z" transform="translate(-64 -416.001)"/></g><g transform="translate(185.672 76.226)"><ellipse class="e" cx="59.896" cy="60.168" rx="59.896" ry="60.168" transform="translate(0 0)"/></g><path class="d" d="M295.629,416.9v10.9a10.933,10.933,0,0,1-10.9,10.9h-92.66a21.787,21.787,0,0,0-17.442,8.721l-9.811,13.082L155,447.425a21.788,21.788,0,0,0-17.442-8.721H44.9A10.933,10.933,0,0,1,34,427.8V416.9A10.933,10.933,0,0,1,44.9,406H284.728A10.933,10.933,0,0,1,295.629,416.9Z" transform="translate(-34 -406)"/><g transform="translate(212.574 109.012)"><path class="f" d="M105.7,426v27.253a20.838,20.838,0,0,1-8.884,4.524,29.377,29.377,0,0,1-7.467.927c-10.9,0-16.352-5.45-16.352-5.45V426Z" transform="translate(-73 -426)"/></g><g transform="translate(191.861 77.017)"><path class="g" d="M122.616,424.872v27.253H69.2a59.732,59.732,0,0,1,44.2-31.995v.164A20.811,20.811,0,0,1,122.616,424.872Z" transform="translate(-69.2 -420.13)"/></g><g transform="translate(16.352 32.704)"><path class="g" d="M265.926,412l-4.361,21.911a81.719,81.719,0,0,0-61.047,32.595v-5.451s-5.451-5.451-16.352-5.451-16.352,5.451-16.352,5.451-5.451-5.451-16.352-5.451-16.352,5.451-16.352,5.451-5.451-5.451-16.352-5.451-16.352,5.451-16.352,5.451S96.957,455.6,86.056,455.6,69.7,461.055,69.7,461.055,64.253,455.6,53.352,455.6a29.37,29.37,0,0,0-7.467.927L37,412h87.21a21.788,21.788,0,0,1,17.442,8.721l9.811,13.082,9.811-13.082A21.788,21.788,0,0,1,178.716,412Z" transform="translate(-37 -412)"/></g><g transform="translate(185.375 136.265)"><path class="g" d="M119.028,435.524l8.885,55.433a60,60,0,0,1-59.9-56.577h.054a26.863,26.863,0,0,0,10.792,2.071c10.9,0,16.352-5.45,16.352-5.45s5.451,5.45,16.352,5.45A29.377,29.377,0,0,0,119.028,435.524Z" transform="translate(-68.01 -431)"/></g><g transform="translate(0 163.518)"><path class="d" d="M268.376,489.743v.763H44.9A10.933,10.933,0,0,1,34,479.6V468.7a10.933,10.933,0,0,1,10.9-10.9h92.66A21.787,21.787,0,0,0,155,449.081L164.815,436l9.811,13.081a21.787,21.787,0,0,0,17.442,8.721h21.8A81.582,81.582,0,0,0,268.376,489.743Z" transform="translate(-34 -436)"/></g><g transform="translate(185.321 109.012)"><path class="f" d="M95.253,426v27.253S89.8,458.7,78.9,458.7a26.866,26.866,0,0,1-10.792-2.071h-.054c0-1.145-.055-2.235-.055-3.379A59.5,59.5,0,0,1,74.541,426Z" transform="translate(-68 -426)"/></g><g transform="translate(147.166 76.308)"><path class="f" d="M93.7,425.451V430.9a82.261,82.261,0,0,0-11.664,21.8H61V425.451S66.451,420,77.352,420,93.7,425.451,93.7,425.451Z" transform="translate(-61 -420)"/></g><g transform="translate(16.352 136.265)"><path class="g" d="M200.518,480.056h-21.8a21.787,21.787,0,0,1-17.442-8.721l-9.811-13.081-9.811,13.081a21.787,21.787,0,0,1-17.442,8.721H37l8.885-44.532a29.377,29.377,0,0,0,7.467.927c10.9,0,16.352-5.45,16.352-5.45s5.451,5.45,16.352,5.45S102.407,431,102.407,431s5.451,5.45,16.352,5.45S135.111,431,135.111,431s5.451,5.45,16.352,5.45S167.815,431,167.815,431s5.451,5.45,16.352,5.45h.218A81.149,81.149,0,0,0,200.518,480.056Z" transform="translate(-37 -431)"/></g><g transform="translate(147.166 109.012)"><path class="f" d="M81.985,426h.055a80.882,80.882,0,0,0-4.688,27.253c0,1.853.055,3.652.218,5.45h-.218c-10.9,0-16.352-5.45-16.352-5.45V426Z" transform="translate(-61 -426)"/></g><g transform="translate(114.463 109.012)"><path class="f" d="M87.7,426v27.253s-5.451,5.45-16.352,5.45S55,453.253,55,453.253V426Z" transform="translate(-55 -426)"/></g><g transform="translate(114.463 76.308)"><path class="f" d="M87.7,425.451V452.7H55V425.451S60.451,420,71.352,420,87.7,425.451,87.7,425.451Z" transform="translate(-55 -420)"/></g><g transform="translate(81.759 109.012)"><path class="f" d="M81.7,426v27.253s-5.451,5.45-16.352,5.45S49,453.253,49,453.253V426Z" transform="translate(-49 -426)"/></g><g transform="translate(81.759 76.308)"><path class="f" d="M81.7,425.451V452.7H49V425.451S54.451,420,65.352,420,81.7,425.451,81.7,425.451Z" transform="translate(-49 -420)"/></g><g transform="translate(49.055 109.012)"><path class="f" d="M75.7,426v27.253s-5.451,5.45-16.352,5.45S43,453.253,43,453.253V426Z" transform="translate(-43 -426)"/></g><g transform="translate(49.055 76.308)"><path class="f" d="M75.7,425.451V452.7H43V425.451S48.451,420,59.352,420,75.7,425.451,75.7,425.451Z" transform="translate(-43 -420)"/></g><g transform="translate(16.352 109.012)"><path class="f" d="M69.7,426v27.253s-5.451,5.45-16.352,5.45a29.377,29.377,0,0,1-7.467-.927A20.838,20.838,0,0,1,37,453.253V426Z" transform="translate(-37 -426)"/></g><g transform="translate(16.352 76.308)"><path class="f" d="M69.7,425.451V452.7H37V425.451a20.837,20.837,0,0,1,8.885-4.524A29.373,29.373,0,0,1,53.352,420C64.253,420,69.7,425.451,69.7,425.451Z" transform="translate(-37 -420)"/></g></g><g transform="translate(0.001 0)"><g transform="translate(50.653 76.308)"><path class="h" d="M84.3,457.155H73.4V432.621a21.171,21.171,0,0,0-10.9-2.72c-8.279,0-12.389,3.761-12.564,3.919l-7.642-7.773C43.012,425.323,49.706,419,62.5,419s19.486,6.323,20.205,7.047l1.6,1.6Z" transform="translate(-42.293 -419.001)"/></g><g transform="translate(83.356 76.308)"><path class="h" d="M90.3,457.155H79.4V432.621a21.171,21.171,0,0,0-10.9-2.72c-8.28,0-12.389,3.761-12.564,3.919l-7.642-7.773C49.012,425.323,55.706,419,68.5,419s19.486,6.323,20.205,7.047l1.6,1.6Z" transform="translate(-48.293 -419.001)"/></g><g transform="translate(116.06 76.308)"><path class="h" d="M96.3,457.155H85.4V432.621a21.171,21.171,0,0,0-10.9-2.72c-8.279,0-12.389,3.761-12.564,3.919l-7.642-7.773C55.012,425.323,61.706,419,74.5,419s19.486,6.323,20.205,7.047l1.6,1.6Z" transform="translate(-54.293 -419.001)"/></g><g transform="translate(148.763 76.308)"><path class="h" d="M102.3,435.347H91.4v-2.725a21.171,21.171,0,0,0-10.9-2.72c-8.279,0-12.389,3.761-12.564,3.919l-7.642-7.773C61.012,425.323,67.706,419,80.5,419s19.486,6.323,20.205,7.047l1.6,1.6Z" transform="translate(-60.293 -419.001)"/></g><g transform="translate(16.352 76.308)"><path class="h" d="M193.277,462.605H36v-34.96l1.6-1.6C38.317,425.323,45.01,419,57.8,419s19.486,6.323,20.205,7.047l1.6,1.6V451.7H193.277ZM46.9,451.7H68.7V432.621a21.171,21.171,0,0,0-10.9-2.72,21.051,21.051,0,0,0-10.9,2.731Z" transform="translate(-36 -419.001)"/></g><g transform="translate(197.312 77.322)"><path class="h" d="M128.067,461.777H69.2v-10.9h47.965V431.8a18.86,18.86,0,0,0-5.069-2.044l2.644-10.574a26.079,26.079,0,0,1,11.73,6.034l1.6,1.6Z" transform="translate(-69.2 -419.186)"/></g><g transform="translate(188.766 137.797)"><path class="h" d="M80.539,445.1a33.311,33.311,0,0,1-12.907-2.48l4.2-10.062a22.534,22.534,0,0,0,8.7,1.641c8.279,0,12.389-3.761,12.564-3.919l7.642,7.773C100.025,438.779,93.332,445.1,80.539,445.1Z" transform="translate(-67.632 -430.281)"/></g><g transform="translate(147.166 114.463)"><path class="h" d="M81.8,464.154c-12.793,0-19.486-6.323-20.205-7.048l-1.6-1.6V426H70.9v24.533a21.171,21.171,0,0,0,10.9,2.72Z" transform="translate(-60 -426)"/></g><g transform="translate(114.463 114.463)"><path class="h" d="M75.8,464.154c-12.793,0-19.486-6.323-20.205-7.048l-1.6-1.6V426H64.9v24.533a21.171,21.171,0,0,0,10.9,2.72c8.279,0,12.389-3.761,12.564-3.919l7.642,7.773C95.288,457.832,88.6,464.154,75.8,464.154Z" transform="translate(-54 -426)"/></g><g transform="translate(81.759 114.463)"><path class="h" d="M69.8,464.154c-12.793,0-19.486-6.323-20.205-7.048l-1.6-1.6V426H58.9v24.533a21.171,21.171,0,0,0,10.9,2.72c8.279,0,12.389-3.761,12.564-3.919l7.642,7.773C89.288,457.832,82.6,464.154,69.8,464.154Z" transform="translate(-48 -426)"/></g><g transform="translate(49.055 114.463)"><path class="h" d="M63.8,464.154c-12.793,0-19.486-6.323-20.205-7.048l-1.6-1.6V426H52.9v24.533a21.171,21.171,0,0,0,10.9,2.72c8.279,0,12.389-3.761,12.564-3.919l7.642,7.773C83.288,457.832,76.6,464.154,63.8,464.154Z" transform="translate(-42 -426)"/></g><g transform="translate(212.574 114.463)"><path class="h" d="M93.8,464.154c-12.793,0-19.486-6.323-20.205-7.048l-1.6-1.6V426H82.9v24.533a21.171,21.171,0,0,0,10.9,2.72,21.05,21.05,0,0,0,10.9-2.731V426h10.9v29.51l-1.6,1.6C113.288,457.832,106.6,464.154,93.8,464.154Z" transform="translate(-72 -426)"/></g><g transform="translate(16.352 114.463)"><path class="h" d="M57.8,464.154c-12.793,0-19.486-6.323-20.205-7.048l-1.6-1.6V426H46.9v24.533a21.171,21.171,0,0,0,10.9,2.72c8.28,0,12.389-3.761,12.564-3.919l7.642,7.773C77.288,457.832,70.6,464.154,57.8,464.154Z" transform="translate(-36 -426)"/></g><g transform="translate(240.997 37.085)"><rect class="h" width="22.354" height="10.901" transform="translate(0 21.919) rotate(-78.679)"/></g><g transform="translate(16.458 37.086)"><rect class="h" width="10.901" height="45.418" transform="translate(0 2.137) rotate(-11.307)"/></g><path class="h" d="M169.265,474.043l-14.172-18.9a16.429,16.429,0,0,0-13.081-6.535H49.352A16.372,16.372,0,0,1,33,432.253v-10.9A16.372,16.372,0,0,1,49.352,405H289.179a16.372,16.372,0,0,1,16.352,16.352v10.9A16.372,16.372,0,0,1,289.179,448.6h-92.66a16.418,16.418,0,0,0-13.081,6.541ZM49.352,415.9a5.452,5.452,0,0,0-5.451,5.45v10.9a5.453,5.453,0,0,0,5.451,5.451h92.66a27.393,27.393,0,0,1,21.8,10.9l5.451,7.271,5.451-7.266a27.382,27.382,0,0,1,21.8-10.9h92.66a5.453,5.453,0,0,0,5.451-5.451v-10.9a5.452,5.452,0,0,0-5.451-5.45Z" transform="translate(-33 -405)"/><g transform="translate(16.453 145.166)"><rect class="h" width="45.418" height="10.901" transform="translate(0 44.534) rotate(-78.679)"/></g><g transform="translate(236.442 145.371)"><rect class="h" width="10.9" height="56.148" transform="translate(0 1.729) rotate(-9.126)"/></g><g transform="translate(0 159.883)"><path class="h" d="M283.728,503.376H49.352A16.372,16.372,0,0,1,33,487.024v-10.9a16.372,16.372,0,0,1,16.352-16.352h92.66a16.418,16.418,0,0,0,13.081-6.541l14.172-18.9,14.172,18.9a16.428,16.428,0,0,0,13.081,6.535h21.8v10.9h-21.8a27.393,27.393,0,0,1-21.8-10.9l-5.451-7.271-5.451,7.266a27.382,27.382,0,0,1-21.8,10.9H49.352a5.453,5.453,0,0,0-5.451,5.451v10.9a5.453,5.453,0,0,0,5.451,5.451H283.728Z" transform="translate(-33 -434.333)"/></g><g transform="translate(163.518 54.506)"><path class="h" d="M150.21,589.419a87.21,87.21,0,1,1,87.21-87.21A87.312,87.312,0,0,1,150.21,589.419Zm0-163.518a76.309,76.309,0,1,0,76.309,76.309A76.392,76.392,0,0,0,150.21,425.9Z" transform="translate(-63 -415)"/></g><g transform="translate(234.376 222.666)"><rect class="h" width="10.901" height="22.611"/></g><g transform="translate(256.179 222.666)"><rect class="h" width="10.901" height="22.611"/></g><g transform="translate(223.475 239.827)"><path class="h" d="M101.253,547.111A27.284,27.284,0,0,1,74,519.858V449h54.506v70.858A27.284,27.284,0,0,1,101.253,547.111ZM84.9,459.9v59.957a16.352,16.352,0,0,0,32.7,0V459.9Z" transform="translate(-74 -449)"/></g><g transform="translate(228.694 261.364)"><rect class="h" width="43.561" height="10.89" transform="translate(0 0)"/></g><g transform="translate(185.321 76.308)"><path class="h" d="M132.407,549.815A65.407,65.407,0,1,1,174.3,434.191l-6.988,8.367a54.538,54.538,0,1,0,6.95,6.949l8.367-6.987a65.391,65.391,0,0,1-50.216,107.3Z" transform="translate(-67 -419.001)"/></g></g></g></svg>