<svg xmlns="http://www.w3.org/2000/svg" width="88.927" height="114.578" viewBox="0 0 88.927 114.578"><defs><style>.a{fill:#f0c4b4;}.b{fill:#e6e9ed;}.c,.d{fill:#62466b;}.c{stroke:#62466b;}</style></defs><g transform="translate(0.624 18.509) rotate(-17)"><g transform="translate(1.61 1.61)"><g transform="translate(12.621 40.244)"><path class="a" d="M33.322.66A49.359,49.359,0,0,0,30.843,16.1a53.225,53.225,0,0,1-4.572,21.571L18.625,54.877a2.491,2.491,0,0,1-4.54,0L6.439,37.669A53.314,53.314,0,0,1,1.867,16.1,48.689,48.689,0,0,0,0,2.688H.016a30.876,30.876,0,0,0,6.149.531c10.19,0,10.19-3.22,20.4-3.22A30.242,30.242,0,0,1,33.322.66Z" transform="translate(0 0)"/></g><g transform="translate(0 0)"><path class="b" d="M57.952,14.488V15.76a14.569,14.569,0,0,1-3.268,9.176,49.712,49.712,0,0,0-8.339,14.729c-.145.4-.29.821-.4,1.24a30.243,30.243,0,0,0-6.761-.66c-10.206,0-10.206,3.22-20.4,3.22a30.876,30.876,0,0,1-6.149-.531h-.016c-.29-1.111-.628-2.189-1.014-3.268A49.712,49.712,0,0,0,3.268,24.935,14.569,14.569,0,0,1,0,15.76V14.488A14.488,14.488,0,0,1,23.181,2.9a9.646,9.646,0,0,0,5.8,1.932,9.646,9.646,0,0,0,5.8-1.932,14.488,14.488,0,0,1,23.181,11.59Z"/></g></g><g transform="translate(0 0)"><g transform="translate(6.439 7.246)"><path class="c" d="M10.541,30.38a54.328,54.328,0,0,0-8.36-14.145A9.679,9.679,0,0,1,0,10.121V8.851A9.665,9.665,0,0,1,5.794,0L7.085,2.949a6.444,6.444,0,0,0-3.865,5.9v1.27A6.456,6.456,0,0,0,4.675,14.2a57.571,57.571,0,0,1,8.852,14.982Z" transform="translate(0 0)"/></g><g transform="translate(30.117 49.67)"><path class="c" d="M2.943,34.692,0,33.385l3.025-6.806a44.8,44.8,0,0,0,3.883-18.3A57.688,57.688,0,0,1,7.51,0l3.184.467a54.664,54.664,0,0,0-.567,7.815,48,48,0,0,1-4.16,19.605Z" transform="translate(0 0)"/></g><path class="c" d="M30.585,99.806a4.091,4.091,0,0,1-3.735-2.427L19.2,80.172a54.374,54.374,0,0,1-4.715-22.22A48.133,48.133,0,0,0,3.638,27.558,16.144,16.144,0,0,1,0,17.366V16.1A16.1,16.1,0,0,1,16.1,0h.013a16.181,16.181,0,0,1,9.639,3.216l-.959,1.293.966-1.289a8.276,8.276,0,0,0,9.662,0A16.211,16.211,0,0,1,45.057,0h.019A16.1,16.1,0,0,1,61.171,16.1v1.27a16.145,16.145,0,0,1-3.638,10.192,48.133,48.133,0,0,0-10.85,30.394,54.374,54.374,0,0,1-4.715,22.22L34.32,97.379A4.091,4.091,0,0,1,30.585,99.806ZM16.1,3.22A12.877,12.877,0,0,0,3.22,16.1v1.27a12.919,12.919,0,0,0,2.912,8.155,51.352,51.352,0,0,1,11.576,32.43,51.179,51.179,0,0,0,4.438,20.911l7.648,17.208a.9.9,0,0,0,1.584,0l7.648-17.208a51.179,51.179,0,0,0,4.438-20.911A51.352,51.352,0,0,1,55.04,25.521a12.92,12.92,0,0,0,2.912-8.155V16.1A12.877,12.877,0,0,0,45.077,3.22h-.016a12.957,12.957,0,0,0-7.708,2.572A11.582,11.582,0,0,1,23.825,5.8l-.006-.006A12.942,12.942,0,0,0,16.106,3.22Z"/><g transform="translate(13.934 40.244)"><path class="d" d="M6.462,6.439A33.3,33.3,0,0,1,0,5.885l.613-3.16a30.3,30.3,0,0,0,5.848.494,27.567,27.567,0,0,0,9.712-1.534A30.612,30.612,0,0,1,26.856,0a32.422,32.422,0,0,1,7.106.692l-.692,3.144a29.318,29.318,0,0,0-6.413-.616,27.519,27.519,0,0,0-9.713,1.536A30.647,30.647,0,0,1,6.462,6.439Z" transform="translate(0 0)"/></g></g></g></svg>