<svg xmlns="http://www.w3.org/2000/svg" width="230.877" height="265.081" viewBox="0 0 230.877 265.081"><defs><style>.a{fill:#ef7385;}.b{fill:#fcd770;}.c{fill:#e6e9ed;}.d{fill:#62466b;}</style></defs><g transform="translate(-37 -501)"><g transform="translate(41.275 505.275)"><g transform="translate(0 188.122)"><path class="a" d="M161.989,554.551V546h1.5a108.281,108.281,0,0,1,96.84,59.857v8.551H38v-8.551A108.262,108.262,0,0,1,134.84,546h1.5v23.045c0,.855.043,1.753.086,2.608a51.023,51.023,0,0,0,8.465,25.653h8.551a51.022,51.022,0,0,0,8.465-25.653c.043-.855.085-1.753.085-2.608Z" transform="translate(-38 -546)"/></g><g transform="translate(98.422 213.775)"><path class="b" d="M61.02,552H86.5a51.022,51.022,0,0,1-8.465,25.653H69.485A51.022,51.022,0,0,1,61.02,552Z" transform="translate(-61.02 -552)"/></g><g transform="translate(98.374 162.641)"><rect class="b" width="26" height="17" transform="translate(0.35 0.083)"/></g><g transform="translate(98.336 196.673)"><path class="b" d="M86.653,548v14.494c0,.855-.043,1.753-.086,2.608H61.086c-.043-.855-.086-1.753-.086-2.608V548Z" transform="translate(-61 -548)"/></g><g transform="translate(98.336 179.571)"><path class="b" d="M86.653,552.551V561.1H61V544H86.653Z" transform="translate(-61 -544)"/></g><g transform="translate(89.785 145.367)"><path class="b" d="M101.755,540.275v8.551a4.288,4.288,0,0,1-4.275,4.275h-34.2A4.288,4.288,0,0,1,59,548.826v-8.551A4.288,4.288,0,0,1,63.276,536h34.2A4.288,4.288,0,0,1,101.755,540.275Z" transform="translate(-59 -536)"/></g><g transform="translate(98.374 111.763)"><rect class="b" width="26" height="16" transform="translate(0.35 -0.039)"/></g><g transform="translate(85.51 94.061)"><path class="b" d="M105.03,524l4.275,17.1H58L62.275,524Z" transform="translate(-58 -524)"/></g><g transform="translate(34.204)"><path class="c" d="M199.918,540.479v3.378a38.6,38.6,0,0,1-8.679,24.37,131.234,131.234,0,0,0-17.487,27.834H72.166a131.234,131.234,0,0,0-17.487-27.834A38.6,38.6,0,0,1,46,543.857v-3.378A38.479,38.479,0,0,1,107.567,509.7a25.653,25.653,0,0,0,30.784,0,38.479,38.479,0,0,1,61.567,30.784Z" transform="translate(-46 -502)"/></g></g><g transform="translate(37 501)"><g transform="translate(76.95 17.102)"><path class="d" d="M93.486,526.378a47.479,47.479,0,0,1-28.24-9.41A17.163,17.163,0,0,0,55,513.551L55.007,505a25.807,25.807,0,0,1,15.375,5.122,38.49,38.49,0,0,0,46.188.013A25.855,25.855,0,0,1,131.94,505l.009,8.551A17.215,17.215,0,0,0,121.7,516.98,47.37,47.37,0,0,1,93.486,526.378Z" transform="translate(-54.998 -505)"/></g><g transform="translate(34.204)"><path class="d" d="M179.759,603.612H72.709l-1.146-2.471a127.624,127.624,0,0,0-16.9-26.944A42.879,42.879,0,0,1,45,547.124v-3.373A42.756,42.756,0,0,1,87.751,501h.034a42.977,42.977,0,0,1,25.6,8.542,21.98,21.98,0,0,0,25.679.008A43.038,43.038,0,0,1,164.671,501h.051a42.749,42.749,0,0,1,42.746,42.751v3.373a42.88,42.88,0,0,1-9.663,27.068,127.6,127.6,0,0,0-16.9,26.948ZM78.135,595.061h96.2a135.748,135.748,0,0,1,16.854-26.281,34.313,34.313,0,0,0,7.73-21.655v-3.373a34.2,34.2,0,0,0-34.2-34.2h-.043a34.394,34.394,0,0,0-20.471,6.832,30.763,30.763,0,0,1-35.931.017,34.367,34.367,0,0,0-20.5-6.849h-.026a34.2,34.2,0,0,0-34.2,34.2v3.373a34.293,34.293,0,0,0,7.734,21.655A135.93,135.93,0,0,1,78.135,595.061Z" transform="translate(-45 -501)"/></g><g transform="translate(0 188.122)"><path class="d" d="M267.877,621.959H37V608.123l.449-.9A111.945,111.945,0,0,1,138.124,545h1.488v8.551h-1.488a103.427,103.427,0,0,0-92.573,56.6v3.258H259.326V610.15a103.427,103.427,0,0,0-92.573-56.6h-1.488V545h1.488a111.945,111.945,0,0,1,100.675,62.221l.449.9Z" transform="translate(-37 -545)"/></g><g transform="translate(176.285 155.454)"><path class="d" d="M102.9,572.432,78.231,542.837l6.572-5.478L102.9,559.071l18.091-21.712,6.572,5.478Z" transform="translate(-78.231 -537.359)"/></g><g transform="translate(197.265 107.113)"><rect class="d" width="8" height="77" transform="translate(-0.266 -0.113)"/></g><g transform="translate(5.265 155.454)"><path class="d" d="M62.9,572.432,38.231,542.837l6.572-5.478L62.9,559.071l18.091-21.712,6.572,5.478Z" transform="translate(-38.231 -537.359)"/></g><g transform="translate(25.886 107.113)"><rect class="d" width="8" height="77" transform="translate(0.115 -0.113)"/></g><g transform="translate(84.308 97.301)"><path class="d" d="M118.981,546.171H56.719l5.607-22.413,8.292,2.071L67.675,537.62h40.35l-2.944-11.791,8.292-2.071Z" transform="translate(-56.719 -523.758)"/></g><g transform="translate(98.336 115.438)"><path class="d" d="M94.2,549.378H60V528h8.551v12.826h17.1V528H94.2Z" transform="translate(-60 -528)"/></g><g transform="translate(89.785 145.367)"><path class="d" d="M100.755,560.653h-34.2A8.562,8.562,0,0,1,58,552.1v-8.551A8.562,8.562,0,0,1,66.551,535h34.2a8.562,8.562,0,0,1,8.551,8.551V552.1A8.562,8.562,0,0,1,100.755,560.653Zm-34.2-17.1V552.1h34.213l-.009-8.551Z" transform="translate(-58 -535)"/></g><g transform="translate(98.336 166.744)"><path class="d" d="M83.665,621.234H70.539l-1.27-1.9A55.036,55.036,0,0,1,60,588.719V540h8.551v48.719a46.428,46.428,0,0,0,6.631,23.964h3.839a46.427,46.427,0,0,0,6.631-23.964V540H94.2v48.719a55.036,55.036,0,0,1-9.269,30.613Z" transform="translate(-60 -540)"/></g><g transform="translate(102.649 179.413)"><rect class="d" width="26" height="8" transform="translate(0.35 -0.413)"/></g><g transform="translate(102.649 197.266)"><rect class="d" width="26" height="8" transform="translate(0.35 -0.266)"/></g><g transform="translate(102.649 214.225)"><rect class="d" width="26" height="8" transform="translate(0.35 -0.225)"/></g></g></g></svg>