<svg xmlns="http://www.w3.org/2000/svg" width="913.825" height="635" viewBox="0 0 913.825 635">
  <g id="Group_577" data-name="Group 577" transform="translate(42.388 -186.5)">
    <g id="Group_576" data-name="Group 576" transform="translate(-42.388 750.905)">
      <g id="curtain">
        <g id="Group_574" data-name="Group 574">
          <g id="Group_558" data-name="Group 558">
            <path id="Path_1744" data-name="Path 1744" d="M584.837,717.864a26.812,26.812,0,0,0,3.468-5.524c1.982-4.132,3-9.677.782-13.616-3.891-6.9-12.795-9.957-17.795-15.836a32.911,32.911,0,0,1-7.944-17.865,32.246,32.246,0,0,0-.74-5.976c-.915-3.1-3.276-4.049-5.7-4.074-18.444-.189-36.941,1.116-55.4,1.116H-323.483v69.184H468.261c17.192,0,34.383-.478,51.575-.4q19.482.088,38.961.581C568.36,725.7,578.04,726.086,584.837,717.864Z" transform="translate(323.483 -654.956)" fill="#dea7b2"/>
          </g>
        </g>
      </g>
    </g>
    <g id="_026-dentist-chair" data-name=" 026-dentist-chair" transform="translate(42.287 280.224)">
      <rect id="Rectangle_73" data-name="Rectangle 73" width="32.711" height="114.486" transform="translate(425.236 195.561)" fill="#778393"/>
      <rect id="Rectangle_74" data-name="Rectangle 74" width="49.066" height="65.421" transform="translate(261.684 179.205)" fill="#9eaabe"/>
      <rect id="Rectangle_75" data-name="Rectangle 75" width="49.066" height="40.888" transform="translate(261.684 203.739)" fill="#778393"/>
      <path id="Path_21" data-name="Path 21" d="M14.3,527.447H177.86v-73.6H-83.83Z" transform="translate(149.251 -225.576)" fill="#ffcc58"/>
      <path id="Path_22" data-name="Path 22" d="M30.657,494.737l-54.521-40.888H-83.83l98.132,73.6H177.86v-32.71Z" transform="translate(149.251 -225.576)" fill="#ffba12"/>
      <rect id="Rectangle_76" data-name="Rectangle 76" width="81.777" height="130.842" transform="translate(228.973 342.758)" fill="#9eaabe"/>
      <g id="Group_23" data-name="Group 23" transform="translate(228.973 342.758)">
        <rect id="Rectangle_77" data-name="Rectangle 77" width="81.777" height="32.711" transform="translate(0 98.132)" fill="#778393"/>
        <rect id="Rectangle_78" data-name="Rectangle 78" width="81.777" height="40.888" transform="translate(0)" fill="#778393"/>
      </g>
      <path id="Path_23" data-name="Path 23" d="M15.84,570.022H342.945A16.352,16.352,0,0,0,359.3,553.675v-.008h0a16.352,16.352,0,0,0-16.347-16.355H40.373L15.84,520.957-98.647,439.178V381.936a16.352,16.352,0,0,0-16.347-16.355H-115a16.35,16.35,0,0,0-16.356,16.346v73.42a16.342,16.342,0,0,0,6.78,13.256L-8.693,552.3Z" transform="translate(139.536 -243.618)" fill="#e7e7e7"/>
      <path id="Path_24" data-name="Path 24" d="M-.992,497.6-25.82,479.859a49.061,49.061,0,0,0-23.175,32.13l23.465,16.952L-.992,546.662H41.458a48.051,48.051,0,0,0,5.88-32.711h-23.8Z" transform="translate(156.372 -220.259)" fill="#a6b4c3"/>
      <g id="Group_24" data-name="Group 24" transform="translate(130.842 277.337)">
        <circle id="Ellipse_9" data-name="Ellipse 9" cx="24.533" cy="24.533" r="24.533" transform="translate(0)" fill="#778393"/>
        <path id="Path_25" data-name="Path 25" d="M-2.353,535.325a32.711,32.711,0,0,0,32.711,32.711h147.2a32.713,32.713,0,0,0,32.711-32.711Z" transform="translate(35.064 -486.258)" fill="#778393"/>
        <path id="Path_26" data-name="Path 26" d="M248.528,683.461H-29.512A32.71,32.71,0,0,1,3.2,650.75H215.818A32.711,32.711,0,0,1,248.528,683.461Z" transform="translate(29.512 -462.664)" fill="#778393"/>
      </g>
      <path id="Path_27" data-name="Path 27" d="M-9.143,360.479V344.124a73.588,73.588,0,0,1,73.58-73.6h.019a73.59,73.59,0,0,1,73.6,73.58V450.433H105.344V344.124a40.892,40.892,0,0,0-40.888-40.888h0a40.891,40.891,0,0,0-40.888,40.888v16.355Z" transform="translate(164.518 -263.049)" fill="#e7e7e7"/>
      <rect id="Rectangle_79" data-name="Rectangle 79" width="32.711" height="32.711" transform="translate(269.862 154.673)" fill="#a6b4c3"/>
      <rect id="Rectangle_80" data-name="Rectangle 80" width="32.711" height="32.711" transform="translate(425.236 130.14)" fill="#778393"/>
      <path id="Path_28" data-name="Path 28" d="M217.844,464.951h0A57.243,57.243,0,0,1,160.6,407.708h0V399.53H275.088v8.178a57.243,57.243,0,0,1-57.243,57.243Z" transform="translate(199.215 -236.679)" fill="#e7e7e7"/>
      <path id="Path_29" data-name="Path 29" d="M-7.254,318.053a73.287,73.287,0,0,0-1.889,16.355v16.356H23.568V334.408a40.7,40.7,0,0,1,3.451-16.355Z" transform="translate(164.518 -253.333)" fill="#a6b4c3"/>
      <rect id="Rectangle_81" data-name="Rectangle 81" width="114.487" height="32.711" transform="translate(114.487 89.252)" fill="#e7e7e7"/>
      <path id="Path_30" data-name="Path 30" d="M344.338,549.833H327.982V478.475a65.077,65.077,0,0,0,16.356-43.129V418.991H327.982V386.28H311.621V337.215a32.711,32.711,0,0,0-65.421,0V353.57h16.358V337.215a16.356,16.356,0,0,1,32.711,0V386.28H278.913v32.71H213.49v16.356a65.5,65.5,0,0,0,65.421,65.417v49.065H197.132V484.412H180.779V435.347H172.6V345.4a81.779,81.779,0,0,0-163.553,0H-31.838V394.46H99V345.4H58.115a32.711,32.711,0,0,1,65.421,0v89.954h-8.178v49.065H-48.194v.466l-40.887-29.213V402.636A24.534,24.534,0,0,0-113.615,378.1a24.533,24.533,0,0,0-24.533,24.534v73.418a24.6,24.6,0,0,0,10.172,19.892l115.182,83.191A32.753,32.753,0,0,0,17.227,598.9h.826a40.958,40.958,0,0,0,40.062,32.711H82.648v89.954H25.411a40.934,40.934,0,0,0-40.888,40.889v8.178H278.911v-8.178a40.935,40.935,0,0,0-40.889-40.889H180.779V631.61h24.534A40.967,40.967,0,0,0,245.375,598.9h98.963a24.533,24.533,0,1,0,0-49.065Zm-49.071-147.2h16.355v16.355H295.267Zm-65.421,32.711h98.132a49.066,49.066,0,0,1-98.132,0Zm65.421,63.27a65.133,65.133,0,0,0,16.355-6.7v57.914H295.267ZM82.648,361.748V378.1H-15.484V361.748Zm8.178-65.421A49.114,49.114,0,0,0,41.76,345.4H25.411a65.421,65.421,0,0,1,130.842,0v89.954H139.892V345.4a49.116,49.116,0,0,0-49.066-49.069ZM131.714,451.7h32.711v32.711H131.714Zm49.065,49.063v49.065H45.391a32.544,32.544,0,0,0-25.113-16.044l-46.229-33.021Zm-302.571-24.71V402.636a8.178,8.178,0,0,1,8.178-8.178,8.178,8.178,0,0,1,8.178,8.178v61.455l104.723,74.8a32.727,32.727,0,0,0-13.566,18.989l-104.116-75.2A8.19,8.19,0,0,1-121.792,476.054ZM.872,566.189a16.355,16.355,0,1,1,16.355,16.356A16.353,16.353,0,0,1,.872,566.189ZM261.158,754.274H2.27a24.58,24.58,0,0,1,23.14-16.356H238.024A24.581,24.581,0,0,1,261.158,754.274Zm-96.733-32.711H99V631.61h65.421Zm179.913-139.02h-147.2V598.9h31.206a24.5,24.5,0,0,1-23.028,16.355H58.115A24.5,24.5,0,0,1,35.087,598.9H180.779V582.543H45.391a32.387,32.387,0,0,0,4.547-16.356h294.4a8.178,8.178,0,1,1,0,16.356Z" transform="translate(138.148 -264.317)" fill="#4c3659"/>
      <rect id="Rectangle_82" data-name="Rectangle 82" width="16.356" height="16.355" transform="translate(384.348 105.608)" fill="#4c3659"/>
    </g>
    <g id="floor-lamp" transform="translate(42.287 186.5)">
      <g id="Group_573" data-name="Group 573" transform="translate(0)">
        <g id="Group_561" data-name="Group 561" transform="translate(0 624.501)">
          <g id="Group_560" data-name="Group 560">
            <path id="Path_1745" data-name="Path 1745" d="M-35.68,705.028l.016.03.079-.045Z" transform="translate(35.68 -705.013)" fill="#b0aed6"/>
          </g>
        </g>
        <g id="Group_570" data-name="Group 570" transform="translate(558.141 415.458)">
          <g id="Group_569" data-name="Group 569" transform="translate(15.241 16.009)">
            <path id="Path_1761" data-name="Path 1761" d="M452.059,629.269h28.687a204.562,204.562,0,0,0-4.938-23.983c-7.006-26.146-18.091-47.929-29.294-59.8a2.392,2.392,0,0,0-4.055,1.084c-3.764,15.884-2.473,40.291,4.533,66.438C448.5,618.65,450.206,624.089,452.059,629.269Z" transform="translate(-440.389 -544.74)" fill="#82964d"/>
            <path id="Path_1762" data-name="Path 1762" d="M499.84,629.268c1.852-5.179,3.555-10.619,5.067-16.259,7.006-26.148,8.3-50.554,4.533-66.438a2.392,2.392,0,0,0-4.055-1.084c-11.2,11.874-22.282,33.656-29.294,59.8a204.073,204.073,0,0,0-4.938,23.983Z" transform="translate(-434.101 -544.739)" fill="#728444"/>
          </g>
          <path id="Path_1763" data-name="Path 1763" d="M487.124,631.986a196.236,196.236,0,0,0,2.848-33.945c0-27.069-5.071-50.979-12.816-65.348a2.391,2.391,0,0,0-4.2,0c-7.746,14.369-12.817,38.278-12.817,65.348a196,196,0,0,0,2.848,33.945Z" transform="translate(-421.111 -531.448)" fill="#82964d"/>
          <path id="Path_1764" data-name="Path 1764" d="M481.759,543.233a76.585,76.585,0,0,0-4.6-10.539,2.391,2.391,0,0,0-4.2,0c-7.746,14.369-12.817,38.279-12.817,65.348a196,196,0,0,0,2.848,33.945h13.405a196,196,0,0,1-2.848-33.945c0-21.245,3.124-40.542,8.213-54.809Z" transform="translate(-421.111 -531.448)" fill="#758943"/>
          <path id="Path_1765" data-name="Path 1765" d="M427.853,619.215l19.05,76.962a4,4,0,0,0,3.879,3.036h61.8a4,4,0,0,0,3.88-3.036l19.05-76.962a3.994,3.994,0,0,0-3.878-4.955h-99.9a3.992,3.992,0,0,0-3.879,4.955Z" transform="translate(-427.735 -514.521)" fill="#e7e7e7"/>
          <path id="Path_1766" data-name="Path 1766" d="M464.167,696.173l-19.05-76.962A3.993,3.993,0,0,1,449,614.255H431.731a3.993,3.993,0,0,0-3.878,4.956l19.05,76.962a4,4,0,0,0,3.878,3.036h17.265A4,4,0,0,1,464.167,696.173Z" transform="translate(-427.735 -514.522)" fill="#c5d2df"/>
        </g>
        <g id="Group_572" data-name="Group 572" transform="translate(657.018)">
          <path id="Path_1767" data-name="Path 1767" d="M525.2,324.948h-76.07a7.608,7.608,0,0,1-7.607-7.607V194.107a7.607,7.607,0,0,1,7.607-7.607H525.2a7.608,7.608,0,0,1,7.607,7.607V317.341a7.607,7.607,0,0,1-7.607,7.607Z" transform="translate(-441.516 -186.5)" fill="#ebeff5"/>
          <path id="Path_1768" data-name="Path 1768" d="M458.258,317.341V194.107a7.607,7.607,0,0,1,7.607-7.607H449.124a7.607,7.607,0,0,0-7.607,7.607V317.341a7.608,7.608,0,0,0,7.607,7.607h16.741A7.608,7.608,0,0,1,458.258,317.341Z" transform="translate(-441.517 -186.5)" fill="#dededd"/>
          <g id="Group_571" data-name="Group 571" transform="translate(22.827 22.821)">
            <path id="Path_1769" data-name="Path 1769" d="M506.112,235.876V210.013a4.564,4.564,0,0,0-4.562-4.565H465.035a4.562,4.562,0,0,0-4.565,4.562v25.866a4.564,4.564,0,0,0,4.562,4.565h36.516a4.564,4.564,0,0,0,4.564-4.564Z" transform="translate(-460.47 -205.448)" fill="#ffba17"/>
            <path id="Path_1770" data-name="Path 1770" d="M460.47,258.014v25.863a4.564,4.564,0,0,0,4.562,4.565h36.516a4.565,4.565,0,0,0,4.565-4.562V258.014a4.564,4.564,0,0,0-4.562-4.565H465.035a4.562,4.562,0,0,0-4.565,4.562Z" transform="translate(-460.47 -195.636)" fill="#ffba17"/>
          </g>
        </g>
        <g id="Group_575" data-name="Group 575" transform="translate(558.141 71.91)">
          <path id="Path_1767-2" data-name="Path 1767-2" d="M443.1,384.654h-76.07a7.608,7.608,0,0,1-7.607-7.607V253.813a7.607,7.607,0,0,1,7.607-7.607H443.1a7.608,7.608,0,0,1,7.607,7.607V377.047a7.607,7.607,0,0,1-7.607,7.607Z" transform="translate(-359.42 -246.206)" fill="#ebeff5"/>
          <path id="Path_1768-2" data-name="Path 1768-2" d="M376.162,377.047V253.813a7.607,7.607,0,0,1,7.607-7.607H367.028a7.607,7.607,0,0,0-7.607,7.607V377.047a7.608,7.608,0,0,0,7.607,7.607h16.741A7.608,7.608,0,0,1,376.162,377.047Z" transform="translate(-359.421 -246.206)" fill="#dededd"/>
          <g id="Group_571-2" data-name="Group 571-2" transform="translate(22.827 22.821)">
            <path id="Path_1769-2" data-name="Path 1769-2" d="M424.016,295.582V269.719a4.564,4.564,0,0,0-4.562-4.565H382.939a4.562,4.562,0,0,0-4.565,4.562v25.866a4.564,4.564,0,0,0,4.562,4.565h36.516a4.564,4.564,0,0,0,4.563-4.564Z" transform="translate(-378.374 -265.154)" fill="#ffba17"/>
            <path id="Path_1770-2" data-name="Path 1770-2" d="M378.374,317.72v25.863a4.564,4.564,0,0,0,4.562,4.565h36.516a4.565,4.565,0,0,0,4.565-4.562V317.72a4.564,4.564,0,0,0-4.562-4.565H382.939a4.562,4.562,0,0,0-4.565,4.562Z" transform="translate(-378.374 -255.342)" fill="#ffba17"/>
          </g>
        </g>
      </g>
    </g>
  </g>
</svg>
